<?xml version="1.0" encoding="UTF-8"?>
<svg id="_レイヤー_1" data-name="レイヤー 1" xmlns="http://www.w3.org/2000/svg" xmlns:xlink="http://www.w3.org/1999/xlink" viewBox="0 0 1000 1000">
  <defs>
    <style>
      .cls-1 {
        fill: url(#_名称未設定グラデーション_2);
      }

      .cls-2 {
        fill: url(#_名称未設定グラデーション_2-2);
      }
    </style>
    <linearGradient id="_名称未設定グラデーション_2" data-name="名称未設定グラデーション 2" x1="0" y1="500" x2="1000" y2="500" gradientUnits="userSpaceOnUse">
      <stop offset="0" stop-color="#ff00c3"/>
      <stop offset=".14" stop-color="#d123ba"/>
      <stop offset=".29" stop-color="#a42dab"/>
      <stop offset=".43" stop-color="#7b2f97"/>
      <stop offset=".57" stop-color="#552b80"/>
      <stop offset=".71" stop-color="#342465"/>
      <stop offset=".86" stop-color="#181a48"/>
      <stop offset="1" stop-color="#050b2b"/>
    </linearGradient>
    <linearGradient id="_名称未設定グラデーション_2-2" data-name="名称未設定グラデーション 2" x1="63.52" x2="936.48" xlink:href="#_名称未設定グラデーション_2"/>
  </defs>
  <g id="_レイヤー_2" data-name="レイヤー 2">
    <g>
      <path class="cls-1" d="M500,0C223.86,0,0,223.86,0,500s223.86,500,500,500,500-223.86,500-500S776.14,0,500,0ZM825.61,825.61c-42.29,42.29-91.53,75.49-146.37,98.68-56.78,24.02-117.08,36.19-179.25,36.19s-122.47-12.18-179.24-36.19c-54.84-23.19-104.08-56.39-146.37-98.68-42.29-42.29-75.49-91.53-98.68-146.37-24.02-56.78-36.19-117.08-36.19-179.25s12.18-122.47,36.19-179.24c23.19-54.84,56.39-104.08,98.68-146.37,42.29-42.29,91.53-75.49,146.37-98.68,56.78-24.02,117.08-36.19,179.24-36.19s122.47,12.18,179.25,36.19c54.84,23.19,104.08,56.39,146.37,98.68,42.29,42.29,75.49,91.53,98.68,146.37,24.02,56.78,36.19,117.08,36.19,179.24s-12.18,122.47-36.19,179.25c-23.19,54.84-56.39,104.08-98.68,146.37Z"/>
      <path class="cls-2" d="M500,63.52c-240.68,0-436.48,195.81-436.48,436.48s195.81,436.48,436.48,436.48,436.48-195.81,436.48-436.48S740.68,63.52,500,63.52ZM373.98,740.88s-.07.06-.07.1v48.39c0,.06-.05.11-.11.11-13.19,0-23.89-10.7-23.89-23.89v-18.57c0-.06-.06-.11-.12-.11-3.61.41-7.28.63-11,.63-53.07,0-96.25-43.18-96.25-96.25,0-44.92,30.93-82.75,72.62-93.31.07-.02.14.04.14.11h0c0,13.49-6.56,26.16-17.64,33.86-18.17,12.63-30.29,33.36-31.07,56.93-1.31,39.74,30.33,73.47,70.08,74.64,4.49.13,8.88-.15,13.16-.81.05,0,.09-.05.09-.11v-57.8c0-.06.05-.11.11-.11,13.19,0,23.89,10.7,23.89,23.89v25.64c0,.08.09.14.16.1,22.04-12.39,36.97-35.99,36.97-63.02,0-24.5-12.26-46.18-30.97-59.25-11-7.69-17.78-20.06-17.78-33.48v-.47c0-.07.07-.12.14-.11,41.68,10.56,72.61,48.39,72.61,93.31,0,40.66-25.35,75.51-61.07,89.59ZM334.98,451.31c-49.73-1.93-90.13-42.08-92.35-91.8-2.09-46.88,29.55-86.87,72.66-97.73v.61c0,13.42-6.78,25.8-17.78,33.48-18.71,13.07-30.97,34.75-30.97,59.25,0,41.15,34.57,74.37,76.2,72.15,36.96-1.97,66.71-32.11,68.25-69.09,1.07-25.8-11.47-48.78-31.02-62.38-11.12-7.73-17.67-20.48-17.67-34.02h0c41.75,10.52,72.75,48.38,72.75,93.35,0,54.34-45.26,98.3-100.06,96.18ZM566.48,352.77c1.93-49.73,42.08-90.13,91.8-92.35,46.88-2.09,86.87,29.55,97.73,72.66h-.61c-13.42,0-25.8-6.78-33.48-17.78-13.07-18.71-34.75-30.97-59.25-30.97-40.46,0-73.26,33.43-72.23,74.11.95,37.74,31.33,68.7,69.05,70.33,22.94.99,43.67-8.79,57.56-24.69h-10.87c-13.25,0-24-10.75-24-24h57.31c8.53,0,14.24,8.85,10.67,16.6-15.23,33.11-48.72,56.16-87.5,56.16-54.34,0-98.3-45.26-96.18-100.06ZM657.4,747.47c-49.73-1.93-90.13-42.08-92.35-91.8-2.09-46.88,29.55-86.87,72.66-97.73v.61c0,13.42-6.78,25.8-17.78,33.48-18.71,13.07-30.97,34.75-30.97,59.25,0,41.15,34.57,74.37,76.2,72.15,36.96-1.97,66.71-32.11,68.25-69.09,1.07-25.8-11.47-48.78-31.02-62.38-11.12-7.73-17.67-20.48-17.67-34.02h0c41.75,10.52,72.75,48.38,72.75,93.35,0,54.34-45.26,98.3-100.06,96.18Z"/>
    </g>
  </g>
</svg>